<?xml version="1.0" encoding="UTF-8"?>
<svg width="69px" height="69px" viewBox="0 0 69 69" version="1.1" xmlns="http://www.w3.org/2000/svg" xmlns:xlink="http://www.w3.org/1999/xlink">
    <!-- Generator: Sketch 52.6 (67491) - http://www.bohemiancoding.com/sketch -->
    <title>drafting-compass-solid</title>
    <desc>Created with Sketch.</desc>
    <g id="Welcome" stroke="none" stroke-width="1" fill="none" fill-rule="evenodd" opacity="0.15">
        <g id="Desktop-new" transform="translate(-761.000000, -825.000000)" fill="#000000" fill-rule="nonzero">
            <g id="drafting-compass-solid" transform="translate(761.000000, 825.000000)">
                <path d="M61.5892383,46.4159766 C58.2133594,49.1557617 54.4965234,51.4265625 50.4656836,53.0262305 L57.7942383,65.7198047 L65.0648437,68.8248047 C66.3868945,69.3894727 67.8800977,68.5269727 68.0525977,67.0998047 L68.9986523,59.249707 L61.5892383,46.4159766 Z M67.3154297,33.6725391 C67.9703906,32.6388867 67.5701367,31.2481055 66.5000977,30.6551367 L62.7172266,28.5568359 C61.7091797,27.9975586 60.4787695,28.3600781 59.8521094,29.3276953 C54.3118945,37.8893555 44.7758789,43.125 34.5,43.125 C31.2750586,43.125 28.1350195,42.5522461 25.145918,41.5711523 L34.2237305,25.8466992 C34.3180664,25.8493945 34.4043164,25.875 34.4986523,25.875 C34.5929883,25.875 34.6805859,25.8493945 34.7735742,25.8466992 L41.65875,37.773457 C45.8674805,36.565957 49.6853906,34.3032422 52.7917383,31.1807227 L45.8122266,19.0908984 C46.8162305,17.254043 47.4375,15.1786523 47.4375,12.9375 C47.4375,5.79222656 41.6452734,0 34.5,0 C27.3547266,0 21.5625,5.79222656 21.5625,12.9375 C21.5625,15.1786523 22.1837695,17.254043 23.1864258,19.0908984 L13.9819336,35.0350195 C12.290625,33.4703906 10.7529492,31.7211328 9.44302734,29.7791602 C8.7975,28.8223242 7.56035156,28.4827148 6.56173828,29.0608594 L2.82199219,31.226543 C1.76408203,31.8383789 1.38943359,33.2345508 2.06191406,34.2547266 C4.16021484,37.4405859 6.73693359,40.2127148 9.60609375,42.6128906 L0,59.2510547 L0.946054687,67.1011523 C1.11855469,68.5283203 2.61175781,69.3908203 3.93380859,68.8261523 L11.2044141,65.7211523 L20.7458203,49.1948438 C25.0839258,50.844375 29.7319922,51.75 34.5,51.75 C47.8485352,51.75 60.2240625,44.8756055 67.3154297,33.6725391 Z M34.5,8.625 C36.8813086,8.625 38.8125,10.5561914 38.8125,12.9375 C38.8125,15.3188086 36.8813086,17.25 34.5,17.25 C32.1186914,17.25 30.1875,15.3188086 30.1875,12.9375 C30.1875,10.5561914 32.1186914,8.625 34.5,8.625 Z" id="Shape"></path>
            </g>
        </g>
    </g>
</svg>