<?xml version="1.0" encoding="UTF-8"?>
<svg width="25px" height="25px" viewBox="0 0 25 25" version="1.1" xmlns="http://www.w3.org/2000/svg" xmlns:xlink="http://www.w3.org/1999/xlink">
    <!-- Generator: Sketch 52.6 (67491) - http://www.bohemiancoding.com/sketch -->
    <title>Group</title>
    <desc>Created with Sketch.</desc>
    <g id="Welcome" stroke="none" stroke-width="1" fill="none" fill-rule="evenodd">
        <g id="Desktop-new" transform="translate(-94.000000, -452.000000)">
            <g id="Group" transform="translate(94.000000, 452.000000)">
                <circle id="Oval" fill="#FFCC33" cx="12.5" cy="12.5" r="12.5"></circle>
                <g id="home-solid" transform="translate(5.000000, 6.000000)" fill="#4A4A4A" fill-rule="nonzero">
                    <path d="M7.78787157,3.34774348 L2.66687804,7.72219359 L2.66687804,12.4434885 C2.66687804,12.6980494 2.86584723,12.9044118 3.11128817,12.9044118 L6.22382565,12.8960575 C6.46839838,12.8947892 6.66601679,12.6887978 6.66601373,12.4351342 L6.66601373,9.67794873 C6.66601373,9.42338782 6.86498293,9.21702544 7.11042387,9.21702544 L8.8880644,9.21702544 C9.13350534,9.21702544 9.33247454,9.42338782 9.33247454,9.67794873 L9.33247454,12.4331177 C9.33210546,12.5556115 9.37876412,12.6732196 9.46214722,12.7599712 C9.54553033,12.8467229 9.65877876,12.895482 9.77688467,12.8954814 L12.8883111,12.9044118 C13.1337521,12.9044118 13.3327213,12.6980494 13.3327213,12.4434885 L13.3327213,7.71902474 L8.21283876,3.34774348 C8.08881943,3.24406306 7.91189089,3.24406306 7.78787157,3.34774348 Z M15.8769693,6.32098678 L13.5549263,4.33584778 L13.5549263,0.345692468 C13.5549263,0.15477179 13.4056994,0 13.2216187,0 L11.6661833,0 C11.4821025,0 11.3328757,0.15477179 11.3328757,0.345692468 L11.3328757,2.43741998 L8.8461232,0.315444377 C8.35395911,-0.10460525 7.64397364,-0.10460525 7.15180956,0.315444377 L0.120963484,6.32098678 C0.0528000432,6.37941934 0.00981983571,6.46355149 0.00148477473,6.55486188 C-0.00685028624,6.64617227 0.0201431066,6.73717529 0.0765224703,6.80783701 L0.784801121,7.70087589 C0.841027967,7.77178539 0.922141968,7.81658481 1.01025356,7.82539371 C1.09836515,7.83420261 1.18623627,7.80629737 1.25448708,7.74783245 L7.78787157,2.16662755 C7.91189089,2.06294712 8.08881943,2.06294712 8.21283876,2.16662755 L14.746501,7.74783245 C14.8146312,7.80630672 14.9023739,7.83430312 14.990413,7.82565835 C15.0784521,7.81701358 15.1595701,7.77243634 15.2159092,7.70174012 L15.9241879,6.80870124 C15.9805099,6.73762792 16.0071936,6.64620172 15.9983312,6.5546636 C15.9894688,6.46312549 15.9457916,6.37902699 15.8769693,6.32098678 Z" id="Shape"></path>
                </g>
            </g>
        </g>
    </g>
</svg>