<?xml version="1.0" encoding="UTF-8"?>
<svg width="51px" height="51px" viewBox="0 0 51 51" version="1.1" xmlns="http://www.w3.org/2000/svg" xmlns:xlink="http://www.w3.org/1999/xlink">
    <!-- Generator: Sketch 52.6 (67491) - http://www.bohemiancoding.com/sketch -->
    <title>info-circle-solid</title>
    <desc>Created with Sketch.</desc>
    <g id="Welcome" stroke="none" stroke-width="1" fill="none" fill-rule="evenodd" opacity="0.25172061">
        <g id="Desktop-new" transform="translate(-376.000000, -538.000000)" fill="#000000" fill-rule="nonzero">
            <g id="info-circle-solid" transform="translate(376.000000, 538.000000)">
                <path d="M25.5,0 C11.4177278,0 0,11.4218407 0,25.5 C0,39.5863851 11.4177278,51 25.5,51 C39.5822722,51 51,39.5863851 51,25.5 C51,11.4218407 39.5822722,0 25.5,0 Z M25.5,11.3104839 C27.8850726,11.3104839 29.8185484,13.2439597 29.8185484,15.6290323 C29.8185484,18.0141048 27.8850726,19.9475806 25.5,19.9475806 C23.1149274,19.9475806 21.1814516,18.0141048 21.1814516,15.6290323 C21.1814516,13.2439597 23.1149274,11.3104839 25.5,11.3104839 Z M31.2580645,37.4274194 C31.2580645,38.1088246 30.7055988,38.6612903 30.0241935,38.6612903 L20.9758065,38.6612903 C20.2944012,38.6612903 19.7419355,38.1088246 19.7419355,37.4274194 L19.7419355,34.9596774 C19.7419355,34.2782722 20.2944012,33.7258065 20.9758065,33.7258065 L22.2096774,33.7258065 L22.2096774,27.1451613 L20.9758065,27.1451613 C20.2944012,27.1451613 19.7419355,26.5926956 19.7419355,25.9112903 L19.7419355,23.4435484 C19.7419355,22.7621431 20.2944012,22.2096774 20.9758065,22.2096774 L27.5564516,22.2096774 C28.2378569,22.2096774 28.7903226,22.7621431 28.7903226,23.4435484 L28.7903226,33.7258065 L30.0241935,33.7258065 C30.7055988,33.7258065 31.2580645,34.2782722 31.2580645,34.9596774 L31.2580645,37.4274194 Z" id="Shape"></path>
            </g>
        </g>
    </g>
</svg>