<?xml version="1.0" encoding="UTF-8"?>
<svg width="69px" height="69px" viewBox="0 0 69 69" version="1.1" xmlns="http://www.w3.org/2000/svg" xmlns:xlink="http://www.w3.org/1999/xlink">
    <!-- Generator: Sketch 52.6 (67491) - http://www.bohemiancoding.com/sketch -->
    <title>microscope-solid</title>
    <desc>Created with Sketch.</desc>
    <g id="Welcome" stroke="none" stroke-width="1" fill="none" fill-rule="evenodd" opacity="0.148088728">
        <g id="Desktop-new" transform="translate(-531.000000, -828.000000)" fill="#000000" fill-rule="nonzero">
            <g id="microscope-solid" transform="translate(565.500000, 862.500000) scale(-1, 1) translate(-565.500000, -862.500000) translate(531.000000, 828.000000)">
                <path d="M21.5625,43.125 L23.1796875,43.125 L23.1796875,45.28125 C23.1796875,46.4725781 24.1446094,47.4375 25.3359375,47.4375 L30.7265625,47.4375 C31.9178906,47.4375 32.8828125,46.4725781 32.8828125,45.28125 L32.8828125,43.125 L34.5,43.125 C36.8813086,43.125 38.8125,41.1938086 38.8125,38.8125 L38.8125,8.625 C38.8125,6.24369141 36.8813086,4.3125 34.5,4.3125 L34.5,2.15625 C34.5,0.964921875 33.5350781,0 32.34375,0 L23.71875,0 C22.5274219,0 21.5625,0.964921875 21.5625,2.15625 L21.5625,4.3125 C19.1811914,4.3125 17.25,6.24369141 17.25,8.625 L17.25,38.8125 C17.25,41.1938086 19.1811914,43.125 21.5625,43.125 Z M62.53125,60.375 L62.3574023,60.375 C66.4717969,55.7916211 69,49.7554687 69,43.125 C69,28.8560156 57.3939844,17.25 43.125,17.25 L43.125,25.875 C52.6367578,25.875 60.375,33.6132422 60.375,43.125 C60.375,52.6367578 52.6367578,60.375 43.125,60.375 L6.46875,60.375 C2.89611328,60.375 0,63.2711133 0,66.84375 C0,68.0350781 0.964921875,69 2.15625,69 L66.84375,69 C68.0350781,69 69,68.0350781 69,66.84375 C69,63.2711133 66.1038867,60.375 62.53125,60.375 Z M14.015625,56.0625 L42.046875,56.0625 C42.6425391,56.0625 43.125,55.5800391 43.125,54.984375 L43.125,52.828125 C43.125,52.2324609 42.6425391,51.75 42.046875,51.75 L14.015625,51.75 C13.4199609,51.75 12.9375,52.2324609 12.9375,52.828125 L12.9375,54.984375 C12.9375,55.5800391 13.4199609,56.0625 14.015625,56.0625 Z" id="Shape"></path>
            </g>
        </g>
    </g>
</svg>