<?xml version="1.0" encoding="UTF-8"?>
<svg width="69px" height="69px" viewBox="0 0 69 69" version="1.1" xmlns="http://www.w3.org/2000/svg" xmlns:xlink="http://www.w3.org/1999/xlink">
    <!-- Generator: Sketch 52.6 (67491) - http://www.bohemiancoding.com/sketch -->
    <title>user-circle-regular</title>
    <desc>Created with Sketch.</desc>
    <g id="Welcome" stroke="none" stroke-width="1" fill="none" fill-rule="evenodd" opacity="0.15">
        <g id="Desktop-new" transform="translate(-759.000000, -711.000000)" fill="#000000" fill-rule="nonzero">
            <g id="user-circle-regular" transform="translate(759.000000, 711.000000)">
                <path d="M34.5,13.3548387 C27.1270161,13.3548387 21.1451613,19.3366935 21.1451613,26.7096774 C21.1451613,34.0826613 27.1270161,40.0645161 34.5,40.0645161 C41.8729839,40.0645161 47.8548387,34.0826613 47.8548387,26.7096774 C47.8548387,19.3366935 41.8729839,13.3548387 34.5,13.3548387 Z M34.5,33.3870968 C30.8135081,33.3870968 27.8225806,30.3961694 27.8225806,26.7096774 C27.8225806,23.0231855 30.8135081,20.0322581 34.5,20.0322581 C38.1864919,20.0322581 41.1774194,23.0231855 41.1774194,26.7096774 C41.1774194,30.3961694 38.1864919,33.3870968 34.5,33.3870968 Z M34.5,0 C15.4415323,0 0,15.4415323 0,34.5 C0,53.5584677 15.4415323,69 34.5,69 C53.5584677,69 69,53.5584677 69,34.5 C69,15.4415323 53.5584677,0 34.5,0 Z M34.5,62.3225806 C27.5860887,62.3225806 21.2703629,59.7768145 16.4014113,55.5895161 C18.4741935,52.3899194 22.0215726,50.2197581 26.0836694,50.0945565 C28.9772177,50.984879 31.7316532,51.4300403 34.5,51.4300403 C37.2683468,51.4300403 40.0227823,50.9987903 42.9163306,50.0945565 C46.9784274,50.2336694 50.5258065,52.3899194 52.5985887,55.5895161 C47.7296371,59.7768145 41.4139113,62.3225806 34.5,62.3225806 Z M57.1336694,50.6231855 C53.7393145,46.2550403 48.4947581,43.4032258 42.5129032,43.4032258 C41.0939516,43.4032258 38.8959677,44.7387097 34.5,44.7387097 C30.1179435,44.7387097 27.9060484,43.4032258 26.4870968,43.4032258 C20.5191532,43.4032258 15.2745968,46.2550403 11.8663306,50.6231855 C8.61108871,46.0741935 6.67741935,40.5096774 6.67741935,34.5 C6.67741935,19.1558468 19.1558468,6.67741935 34.5,6.67741935 C49.8441532,6.67741935 62.3225806,19.1558468 62.3225806,34.5 C62.3225806,40.5096774 60.3889113,46.0741935 57.1336694,50.6231855 Z" id="Shape"></path>
            </g>
        </g>
    </g>
</svg>